<svg xmlns="http://www.w3.org/2000/svg" xmlns:xlink="http://www.w3.org/1999/xlink" width="256" height="256" viewBox="0 0 256 256"><defs xmlns="http://www.w3.org/2000/svg" xmlns:xlink="http://www.w3.org/1999/xlink" id="background_defs10"><linearGradient id="background_b"><stop id="background_stop1" offset="0" style="stop-color:#f5f5f5;stop-opacity:1"/><stop id="background_stop2" offset="1" style="stop-color:#fff;stop-opacity:1"/></linearGradient><linearGradient id="background_a"><stop id="background_stop3" offset="0" style="stop-color:#176dbe;stop-opacity:1"/><stop id="background_stop4" offset=".198" style="stop-color:#176dbe;stop-opacity:1"/><stop id="background_stop5" offset="1" style="stop-color:#8abfee;stop-opacity:1"/></linearGradient><linearGradient xlink:href="#background_a" id="background_h" x1="57.627" x2="57.627" y1="123.35" y2="262.115" gradientTransform="matrix(.99329 0 0 1.08505 -17.894 -49.877)" gradientUnits="userSpaceOnUse"/><linearGradient id="background_d" x1="190.523" x2="180.141" y1="30.799" y2="41.595" gradientTransform="translate(-41.039 113.128)" gradientUnits="userSpaceOnUse"><stop id="background_stop6" offset="0" stop-color="#afafaf"/><stop id="background_stop7" offset="1" stop-color="#fff"/></linearGradient><linearGradient xlink:href="#background_a" id="background_f" x1="57.627" x2="57.627" y1="123.35" y2="262.115" gradientTransform="matrix(.99329 0 0 1.08505 -17.894 -49.877)" gradientUnits="userSpaceOnUse"/><linearGradient xlink:href="#background_b" id="background_c" x1="128" x2="128" y1="219" y2="37" gradientUnits="userSpaceOnUse"/><filter id="background_e" width="1.388" height="1.388" x="-.177" y="-.177" color-interpolation-filters="sRGB"><feFlood id="background_feFlood7" flood-opacity=".775" result="flood"/><feComposite id="background_feComposite7" in="flood" in2="SourceGraphic" operator="in" result="composite1"/><feGaussianBlur id="background_feGaussianBlur7" result="blur" stdDeviation="4"/><feOffset id="background_feOffset7" dx="1.8" dy="1.8" result="offset"/><feComposite id="background_feComposite8" in="SourceGraphic" in2="offset" result="composite2"/></filter><filter id="background_g" width="1.159" height="1.424" x="-.068" y="-.182" style="color-interpolation-filters:sRGB"><feFlood id="background_feFlood8" flood-color="#000" flood-opacity=".498" result="flood"/><feGaussianBlur id="background_feGaussianBlur8" in="SourceGraphic" result="blur" stdDeviation="3"/><feOffset id="background_feOffset8" dx="3" dy="3" in="blur" result="offset"/><feComposite id="background_feComposite9" in="flood" in2="offset" operator="in" result="comp1"/><feComposite id="background_feComposite10" in="comp1" in2="comp1" operator="atop" result="comp2"/></filter></defs><g xmlns="http://www.w3.org/2000/svg" id="background_g19" style="display:inline"><path id="background_path10" d="M37 8h128.39L219 61.61 218.845 248H37Z" style="display:inline;fill:url(#background_c);stroke-width:4;stroke-linejoin:round;paint-order:stroke fill markers"/><path id="background_path11" d="M178.91 172.653c.126 0-7.943-5.934-12.11-8.08s-8.94-3.52-13.637-3.536c-20.026-.069-20.077.126-20.077.126s-.396.58-.126-24.244c.031-2.862-1.515-6.945-2.651-9.47-2.244-4.355-5.577-8.974-5.577-8.974" style="display:inline;fill:url(#background_d);filter:url(#background_e)" transform="translate(41.966 -109.234)scale(.98952)"/><g id="background_g16" style="display:inline"><path id="background_path12" stroke="#c2c2c2" stroke-linejoin="round" stroke-miterlimit="0" d="m164.077 4.702 55.234 55.234" style="display:inline" transform="translate(2.394 2.709)scale(.98952)"/><path id="background_path13" stroke="#878787" stroke-linejoin="round" stroke-miterlimit="0" stroke-width="2" d="m218.9 59.525-.157 188.364H34.973" style="display:inline;fill:none;stroke-width:2.02118;stroke-linecap:round;stroke-linejoin:round;stroke-miterlimit:0;stroke-dasharray:none" transform="translate(2.394 2.709)scale(.98952)"/><path id="background_path14" stroke="#b6b6b6" stroke-linejoin="round" stroke-miterlimit="0" stroke-width="2" d="M34.972 247.889V4.979l129.75.368" style="display:inline;fill:none;stroke-width:2.02118;stroke-linecap:round;stroke-dasharray:none" transform="translate(2.394 2.709)scale(.98952)"/><path id="background_path15" stroke="#878787" stroke-width="2" d="M218.9 59.525c.126 0-7.942-5.934-12.11-8.08-4.166-2.147-8.94-3.52-13.636-3.536-20.026-.069-20.077.126-20.077.126" style="display:inline;fill:none;stroke-width:2.02118;stroke-linecap:round;stroke-dasharray:none" transform="translate(2.394 2.709)scale(.98952)"/><path id="background_path16" stroke="#b6b6b6" stroke-width="1.993" d="M173.077 48.035s-.395.499-.126-24.244c.03-2.853-1.52-6.953-2.652-9.47-2.236-4.341-5.577-8.974-5.577-8.974" style="display:inline;fill:none;stroke-width:2.02118;stroke-linecap:round;stroke-dasharray:none" transform="translate(2.394 2.709)scale(.98952)"/></g></g><defs xmlns="http://www.w3.org/2000/svg" xmlns:xlink="http://www.w3.org/1999/xlink" id="component_defs6"><linearGradient id="component_linearGradient129"><stop id="component_stop129" offset="0" style="stop-color:#f5f5f5;stop-opacity:1"/><stop id="component_stop130" offset="1" style="stop-color:#fff;stop-opacity:1"/></linearGradient><linearGradient xlink:href="#component_linearGradient129" id="component_linearGradient31" x1="128" x2="128" y1="219" y2="37" gradientUnits="userSpaceOnUse"/><clipPath id="component_clipPath31" clipPathUnits="userSpaceOnUse"><path id="component_path31" d="M37 8h128.39L219 61.61 218.845 248H37Z" style="display:inline;fill:url(#component_linearGradient31);stroke-width:4;stroke-linejoin:round;paint-order:stroke fill markers"/></clipPath></defs><g xmlns="http://www.w3.org/2000/svg" id="component_g126" clip-path="url(#component_clipPath31)" style="display:inline" transform="translate(-.078 10.92)"><g id="component_g4" style="fill:#323232;fill-opacity:1" transform="translate(59.81 214.346)scale(.14206)"><path id="component_path1-5" d="M240-294 54-480l186-186 42 42-143 144 143 144zm172 133-58-18 195-620 57 17zm308-133-42-42 143-144-143-144 42-42 186 186z" style="fill:#323232;fill-opacity:1"/></g></g><g xmlns="http://www.w3.org/2000/svg" id="background_ext" style="display:inline"><path id="background_ext_bg" d="M-28.578 133.822h135.847v50.847H-28.578Z" style="display:inline;fill:url(#background_f);fill-opacity:1;fill-rule:nonzero;stroke:#176dbe;stroke-width:4.15263;stroke-linecap:butt;stroke-linejoin:round;stroke-dasharray:none;paint-order:stroke fill markers;filter:url(#background_g)" transform="translate(51.278 -110.42)scale(.98952)"/><path id="background_ext_bg_shadow" d="M-28.578 133.822h135.847v50.847H-28.578Z" style="display:inline;fill:url(#background_h);fill-opacity:1;fill-rule:nonzero;stroke:#176dbe;stroke-width:4.15263;stroke-linecap:butt;stroke-linejoin:round;stroke-dasharray:none;paint-order:stroke fill markers" transform="translate(51.278 -110.42)scale(.98952)"/></g><g id="extension_label" fill="#fff" data-role="extension-label"><path d="M42.078 70.985q-1.218 0-2.14-.149a18 18 0 0 1-1.594-.32v-5.297q.672.172 1.406.297.735.125 1.578.125 1.095 0 1.993-.422.897-.421 1.406-1.594.508-1.172.508-3.359V32.157h6.343v28.062q0 3.875-1.195 6.242t-3.344 3.446-4.961 1.078" data-glyph="0"/><path d="M76.813 53.844q0 3.984-2.883 6.359t-8.164 2.375q-4.75 0-8.485-1.812v-5.922a61 61 0 0 0 4.43 1.703q2.289.781 4.555.781 2.359 0 3.344-.906t.984-2.281q0-1.14-.781-1.938-.782-.796-2.078-1.492a67 67 0 0 0-2.985-1.492 35 35 0 0 1-2.265-1.195 12.6 12.6 0 0 1-2.329-1.727 8.5 8.5 0 0 1-1.828-2.5q-.718-1.468-.718-3.531 0-4.032 2.734-6.273 2.734-2.243 7.437-2.243 2.345 0 4.469.539 2.125.54 4.438 1.555l-2.063 4.953q-2.063-.843-3.695-1.304a12.3 12.3 0 0 0-3.367-.461q-1.797 0-2.766.843-.969.844-.969 2.188 0 1.594 1.43 2.515 1.43.922 4.242 2.266 2.313 1.093 3.93 2.274 1.617 1.179 2.5 2.773.882 1.593.883 3.953" data-glyph="1"/><path d="M109.36 47.125q0 4.657-1.532 8.125-1.53 3.469-4.679 5.399-3.148 1.929-8.071 1.929-4.875 0-8.047-1.929-3.171-1.93-4.703-5.422-1.53-3.492-1.531-8.149 0-4.624 1.531-8.085 1.532-3.461 4.703-5.375t8.094-1.915q4.875 0 8.039 1.915 3.165 1.914 4.68 5.375 1.516 3.46 1.516 8.132m-21.797 0q0 4.704 1.781 7.368t5.734 2.664q4.031 0 5.774-2.664 1.742-2.664 1.742-7.368 0-4.718-1.742-7.406-1.743-2.687-5.727-2.687-4 0-5.781 2.687-1.782 2.688-1.781 7.406" data-glyph="2"/><path d="M142.078 62.157h-8.062l-13.078-22.688h-.157q.079 2.14.188 4.289a296 296 0 0 1 .187 4.289v14.11h-5.671v-30h8.015l13.031 22.484h.125a251 251 0 0 0-.125-4.164q-.078-2.055-.171-4.117V32.157h5.718z" data-glyph="3"/></g></svg>