<?xml version="1.0" encoding="UTF-8" standalone="no"?>
<svg
   height="48"
   viewBox="0 -960 960 960"
   width="48"
   fill="#ffffff"
   version="1.1"
   id="svg1"
   xml:space="preserve"
   xmlns="http://www.w3.org/2000/svg"
   xmlns:svg="http://www.w3.org/2000/svg"><defs
     id="defs1" /><path
     d="m 285.1295,-196.99997 q -26.50153,0 -52.42336,-9.0088 -25.914,-9.00879 -45.49834,-29.37651 27.41808,-9.40048 39.16868,-27.41807 11.7506,-18.0176 11.7506,-48.56917 0,-34.27259 24.03391,-58.26733 24.02606,-23.98689 58.36133,-23.98689 34.32743,0 58.22032,23.98689 23.8929,23.99474 23.8929,58.26733 0,50.13591 -34.07675,82.25423 -34.07675,32.11832 -83.42929,32.11832 z m 0,-47.00242 q 27.41808,0 48.96085,-19.58434 21.54277,-19.58434 21.54277,-47.78579 0,-15.66747 -9.79217,-25.45964 -9.79217,-9.79217 -25.45964,-9.79217 -15.66747,0 -25.45964,9.79217 -9.79217,9.79217 -9.79217,25.45964 0,30.55157 -6.65868,45.04399 -6.65867,14.49241 -24.67626,17.6259 4.70024,0.78337 15.66747,2.74181 10.96723,1.95843 15.66747,1.95843 z m 180.17593,-138.65712 -70.50363,-74.4205 294.54848,-294.54847 q 10.96723,-10.96723 24.28458,-11.35892 13.31735,-0.39168 25.06795,11.35892 l 22.71784,22.71783 q 11.7506,11.75061 11.35892,25.45965 -0.39169,13.70903 -11.35892,24.67626 z m -144.92412,71.28699 z"
     id="path1-3"
     style="display:inline;fill:#ffffff;stroke-width:0.783374" /><path
     d="m 61.30307,-546.99343 39.42206,-35.94021 77.87044,85.41444 -1.10064,-17.04355 q -4.82748,-72.59936 17.22347,-127.59357 22.05096,-54.99419 70.67149,-99.32045 69.64561,-63.49437 162.60272,-73.04551 92.95711,-9.55116 175.08055,38.29822 l -40.73611,37.13819 q -63.97926,-31.90645 -135.88323,-21.6973 -71.90397,10.20917 -125.12373,58.72846 -41.39315,37.73721 -57.86866,81.03117 -16.4755,43.29396 -14.85453,89.94146 l 4.17237,32.29008 81.47225,-74.27643 35.94021,39.42207 -151.11787,137.77079 z"
     id="path1-9"
     style="display:inline;fill:#ffffff;stroke-width:0.889096" /><path
     id="path9"
     style="display:inline;fill:#ffffff;stroke-width:0.982157"
     d="m 798.57498,-599.16795 -159.2277,160.26333 41.81345,41.5114 85.82762,-86.38859 2.2007,38.18876 c 0.11415,35.18747 -5.76378,69.68205 -17.69196,103.51958 -11.92817,33.83754 -28.98253,61.93528 -51.13409,84.23102 -37.38078,37.62409 -82.10398,61.735 -134.1569,72.32131 -41.00688,8.33981 -80.95724,6.67501 -119.87385,-4.96238 l -45.74021,45.7402 c 53.28753,21.57808 108.68891,27.78371 166.17503,18.59815 68.02542,-10.86963 126.49133,-40.94943 175.40938,-90.18589 27.22796,-27.40518 48.60831,-62.88145 64.20889,-106.45385 15.60058,-43.5724 22.39353,-92.19282 20.36734,-145.894 l -0.73357,-20.15158 91.26465,90.66054 41.5114,-41.7703 z" /></svg>
